<mxfile host="Electron" agent="Mozilla/5.0 (X11; Linux x86_64) AppleWebKit/537.36 (KHTML, like Gecko) draw.io/26.0.4 Chrome/128.0.6613.186 Electron/32.2.5 Safari/537.36" version="26.0.4">
  <diagram name="Page-1" id="iAcHk5CQT9hVxp2CkRDR">
    <mxGraphModel dx="1207" dy="1198" grid="1" gridSize="10" guides="1" tooltips="1" connect="1" arrows="1" fold="1" page="1" pageScale="1" pageWidth="850" pageHeight="1100" math="0" shadow="0">
      <root>
        <mxCell id="0" />
        <mxCell id="1" parent="0" />
        <mxCell id="L1Fdy-B14Yd3FDEpBN1j-1" value="AWS Cloud" style="points=[[0,0],[0.25,0],[0.5,0],[0.75,0],[1,0],[1,0.25],[1,0.5],[1,0.75],[1,1],[0.75,1],[0.5,1],[0.25,1],[0,1],[0,0.75],[0,0.5],[0,0.25]];outlineConnect=0;gradientColor=none;html=1;whiteSpace=wrap;fontSize=12;fontStyle=0;container=1;pointerEvents=0;collapsible=0;recursiveResize=0;shape=mxgraph.aws4.group;grIcon=mxgraph.aws4.group_aws_cloud_alt;strokeColor=#232F3E;fillColor=none;verticalAlign=top;align=left;spacingLeft=30;fontColor=#232F3E;dashed=0;" vertex="1" parent="1">
          <mxGeometry x="155" y="470" width="305" height="160" as="geometry" />
        </mxCell>
        <mxCell id="L1Fdy-B14Yd3FDEpBN1j-2" value="Database" style="sketch=0;points=[[0,0,0],[0.25,0,0],[0.5,0,0],[0.75,0,0],[1,0,0],[0,1,0],[0.25,1,0],[0.5,1,0],[0.75,1,0],[1,1,0],[0,0.25,0],[0,0.5,0],[0,0.75,0],[1,0.25,0],[1,0.5,0],[1,0.75,0]];outlineConnect=0;fontColor=#232F3E;fillColor=#C925D1;strokeColor=#ffffff;dashed=0;verticalLabelPosition=bottom;verticalAlign=top;align=center;html=1;fontSize=12;fontStyle=0;aspect=fixed;shape=mxgraph.aws4.resourceIcon;resIcon=mxgraph.aws4.redshift;" vertex="1" parent="L1Fdy-B14Yd3FDEpBN1j-1">
          <mxGeometry x="21" y="50" width="78" height="78" as="geometry" />
        </mxCell>
        <mxCell id="L1Fdy-B14Yd3FDEpBN1j-8" value="Application" style="sketch=0;outlineConnect=0;fontColor=#232F3E;gradientColor=none;fillColor=#ED7100;strokeColor=none;dashed=0;verticalLabelPosition=bottom;verticalAlign=top;align=center;html=1;fontSize=12;fontStyle=0;aspect=fixed;pointerEvents=1;shape=mxgraph.aws4.instance2;" vertex="1" parent="L1Fdy-B14Yd3FDEpBN1j-1">
          <mxGeometry x="205" y="48" width="80" height="80" as="geometry" />
        </mxCell>
        <mxCell id="L1Fdy-B14Yd3FDEpBN1j-7" value="&amp;nbsp;DB Query&lt;div&gt;100 MB&lt;/div&gt;" style="edgeStyle=orthogonalEdgeStyle;rounded=0;orthogonalLoop=1;jettySize=auto;html=1;strokeColor=#FF1616;strokeWidth=2;fontColor=#FF1616;fontStyle=1" edge="1" parent="L1Fdy-B14Yd3FDEpBN1j-1" source="L1Fdy-B14Yd3FDEpBN1j-2" target="L1Fdy-B14Yd3FDEpBN1j-8">
          <mxGeometry x="0.0654" relative="1" as="geometry">
            <mxPoint as="offset" />
            <mxPoint x="280" y="89.09999999999991" as="targetPoint" />
          </mxGeometry>
        </mxCell>
        <mxCell id="L1Fdy-B14Yd3FDEpBN1j-3" value="Corporate data center" style="points=[[0,0],[0.25,0],[0.5,0],[0.75,0],[1,0],[1,0.25],[1,0.5],[1,0.75],[1,1],[0.75,1],[0.5,1],[0.25,1],[0,1],[0,0.75],[0,0.5],[0,0.25]];outlineConnect=0;gradientColor=none;html=1;whiteSpace=wrap;fontSize=12;fontStyle=0;container=1;pointerEvents=0;collapsible=0;recursiveResize=0;shape=mxgraph.aws4.group;grIcon=mxgraph.aws4.group_corporate_data_center;strokeColor=#7D8998;fillColor=none;verticalAlign=top;align=left;spacingLeft=30;fontColor=#5A6C86;dashed=0;" vertex="1" parent="1">
          <mxGeometry x="500" y="470" width="225" height="160" as="geometry" />
        </mxCell>
        <mxCell id="L1Fdy-B14Yd3FDEpBN1j-6" value="User" style="sketch=0;outlineConnect=0;fontColor=#232F3E;gradientColor=none;fillColor=#232F3D;strokeColor=none;dashed=0;verticalLabelPosition=bottom;verticalAlign=top;align=center;html=1;fontSize=12;fontStyle=0;aspect=fixed;pointerEvents=1;shape=mxgraph.aws4.user;" vertex="1" parent="L1Fdy-B14Yd3FDEpBN1j-3">
          <mxGeometry x="130" y="50" width="78" height="78" as="geometry" />
        </mxCell>
        <mxCell id="L1Fdy-B14Yd3FDEpBN1j-4" value="Query Results&lt;div&gt;50 KB&lt;/div&gt;" style="edgeStyle=orthogonalEdgeStyle;rounded=0;orthogonalLoop=1;jettySize=auto;html=1;strokeWidth=2;strokeColor=#00CC00;fontColor=#00CC00;fontStyle=1" edge="1" parent="1" source="L1Fdy-B14Yd3FDEpBN1j-8" target="L1Fdy-B14Yd3FDEpBN1j-6">
          <mxGeometry x="0.2439" y="-1" relative="1" as="geometry">
            <mxPoint x="545" y="559.0999999999999" as="sourcePoint" />
            <mxPoint as="offset" />
          </mxGeometry>
        </mxCell>
      </root>
    </mxGraphModel>
  </diagram>
</mxfile>
